<svg width="715" height="412" viewBox="0 0 715 412" fill="none" xmlns="http://www.w3.org/2000/svg">
<path fill-rule="evenodd" clip-rule="evenodd" d="M132.328 137V165.552C127.427 167.58 122.695 168.425 117.794 168.425C100.725 168.425 89.5709 156.595 89.5709 138.85C89.5709 138.225 89.584 137.608 89.61 137H49.3732C49.3571 137.613 49.3489 138.23 49.3489 138.85C49.3489 151.093 52.515 162.109 58.1747 171.333H166.973V137H132.328ZM183.967 137V171.333H277.255V167.073H223.851V137H183.967ZM288.271 137V171.333H328.155V137H288.271ZM373.043 137V171.333H412.927V137H373.043ZM451.573 137C451.557 137.613 451.549 138.23 451.549 138.85C451.549 151.093 454.715 162.109 460.368 171.333H564.127L545.344 154.567C538.415 163.355 530.134 168.425 519.487 168.425C502.925 168.425 491.771 156.933 491.771 138.85C491.771 138.225 491.784 137.609 491.811 137H451.573ZM582.041 137V171.333H621.925V154.398H658.767V171.333H698.651V137H582.041Z" fill="white"/>
<path fill-rule="evenodd" clip-rule="evenodd" d="M259.218 377.333H155.459C149.806 368.109 146.639 357.093 146.639 344.85C146.639 344.23 146.648 343.613 146.664 343H186.901C186.875 343.609 186.861 344.225 186.861 344.85C186.861 362.933 198.015 374.425 214.577 374.425C225.224 374.425 233.505 369.355 240.434 360.567L259.218 377.333ZM394.365 377.333H278.992C273.181 368.061 269.924 357.021 269.924 344.85C269.924 344.23 269.932 343.614 269.949 343H310.186C310.159 343.608 310.146 344.225 310.146 344.85C310.146 363.271 321.976 374.425 336.679 374.425C351.382 374.425 363.212 363.271 363.212 344.85C363.212 344.225 363.198 343.608 363.171 343H403.408C403.425 343.614 403.434 344.23 403.434 344.85C403.434 357.021 400.177 368.061 394.365 377.333ZM533.907 377.333H417.91V343H457.794V372.904H474.525C491.256 372.904 502.748 362.933 502.748 344.85C502.748 344.224 502.734 343.607 502.706 343H542.946C542.962 343.613 542.97 344.229 542.97 344.85C542.97 357.472 539.747 368.412 533.907 377.333ZM655.891 377.333H557.533V343H646.765V358.37H596.741V373.918H655.891V377.333Z" fill="white"/>
<path fill-rule="evenodd" clip-rule="evenodd" d="M113.042 94.004V92.643H147.687V94.004H113.042ZM38.889 128.337H147.687V142.667C133.322 152.469 113.549 157.708 96.1422 157.708C70.8179 157.708 50.0258 146.489 38.889 128.337ZM96.9872 34C58.6142 34 31.0178 58.6558 30.0875 94.004H70.3242C71.0564 76.84 82.0409 66.279 99.0152 66.279C109.493 66.279 118.112 70.673 125.548 79.292L151.067 56.815C139.068 42.112 120.309 34 96.9872 34ZM164.681 155.004V128.337H257.969V155.004H164.681ZM204.565 94.004H164.681V36.704H204.565V94.004ZM268.986 155.004V128.337H308.87V155.004H268.986ZM308.87 94.004H268.986V36.704H308.87V94.004ZM353.758 155.004V128.337H393.642V155.004H353.758ZM393.642 94.004H353.758V67.631H319.113V36.704H428.287V67.631H393.642V94.004ZM498.173 157.708C472.961 157.708 452.207 146.489 441.083 128.337H544.842L551.239 134.048C539.578 149.258 521.326 157.708 498.173 157.708ZM432.288 94.004L432.284 94.1588C433.137 58.7278 460.743 34 498.173 34C521.326 34 539.578 42.45 551.239 57.66L526.058 80.137C519.129 71.349 510.848 66.279 500.201 66.279C484.211 66.279 473.262 76.9908 472.525 94.004H432.288ZM639.481 36.704H679.365V94.004H562.755V36.704H602.639V78.616H639.481V36.704ZM639.481 128.337H679.365V155.004H639.481V128.337ZM562.755 128.337H602.639V155.004H562.755V128.337ZM142.681 343C133.002 332.369 127.354 318.207 127.354 301.854C127.354 265.519 155.239 240 193.264 240C216.417 240 234.669 248.45 246.33 263.66L221.149 286.137C214.22 277.349 205.939 272.279 195.292 272.279C178.73 272.279 167.576 283.771 167.576 301.854C167.576 319.937 178.73 331.429 195.292 331.429C205.939 331.429 214.22 326.359 221.149 317.571L246.33 340.048C234.669 355.258 216.417 363.708 193.264 363.708C187.647 363.708 182.252 363.151 177.135 362.085C174.327 357.428 172.774 351.598 172.774 344.85C172.774 344.225 172.787 343.609 172.814 343H142.681ZM266.346 343C256.429 332.301 250.638 318.083 250.638 301.854C250.638 266.026 278.861 240 317.393 240C355.925 240 384.148 266.026 384.148 301.854C384.148 318.083 378.357 332.301 368.44 343H349.084C349.111 343.608 349.124 344.225 349.124 344.85C349.124 349.789 348.274 354.206 346.745 358.026C338.014 361.698 328.101 363.708 317.393 363.708C311.439 363.708 305.732 363.087 300.337 361.904C297.629 357.309 296.058 351.562 296.058 344.85C296.058 344.225 296.072 343.608 296.099 343H266.346ZM317.393 331.429C332.096 331.429 343.926 320.275 343.926 301.854C343.926 283.433 332.096 272.279 317.393 272.279C302.69 272.279 290.86 283.433 290.86 301.854C290.86 320.275 302.69 331.429 317.393 331.429ZM398.624 242.704H456.929C496.475 242.704 523.684 265.181 523.684 301.854C523.684 318.923 517.79 332.917 507.5 343H488.619C488.646 343.607 488.66 344.224 488.66 344.85C488.66 348.953 488.068 352.638 486.958 355.884C478.137 359.237 468.018 361.004 456.929 361.004H443.706V343H403.822V361.004H398.624V242.704ZM438.508 329.908H455.239C471.97 329.908 483.462 319.937 483.462 301.854C483.462 283.771 471.97 273.8 455.239 273.8H438.508V329.908ZM577.455 330.922H636.605V361.004H582.653V358.37H632.677V343H543.445V361.004H538.247V242.704H634.408V272.786H577.455V286.644H627.479V315.374H577.455V330.922Z" fill="white"/>
<path fill-rule="evenodd" clip-rule="evenodd" d="M118.24 137V165.552C113.339 167.58 108.607 168.425 103.706 168.425C86.6374 168.425 75.4834 156.595 75.4834 138.85C75.4834 138.225 75.4965 137.608 75.5224 137H35.2857C35.2695 137.613 35.2614 138.23 35.2614 138.85C35.2614 151.093 38.4275 162.109 44.0872 171.333H152.885V137H118.24ZM169.879 137V171.333H263.167V167.073H209.763V137H169.879ZM274.184 137V171.333H314.068V137H274.184ZM358.956 137V171.333H398.84V137H358.956ZM437.486 137C437.47 137.613 437.462 138.23 437.462 138.85C437.462 151.093 440.628 162.109 446.281 171.333H550.04L531.257 154.567C524.328 163.355 516.047 168.425 505.4 168.425C488.838 168.425 477.684 156.933 477.684 138.85C477.684 138.225 477.697 137.609 477.723 137H437.486ZM567.953 137V171.333H607.837V154.398H644.679V171.333H684.563V137H567.953Z" fill="white"/>
<path fill-rule="evenodd" clip-rule="evenodd" d="M245.13 377.333H141.371C135.718 368.109 132.552 357.093 132.552 344.85C132.552 344.23 132.56 343.613 132.576 343H172.814C172.787 343.609 172.774 344.225 172.774 344.85C172.774 362.933 183.928 374.425 200.49 374.425C211.137 374.425 219.418 369.355 226.347 360.567L245.13 377.333ZM380.278 377.333H264.905C259.093 368.061 255.836 357.021 255.836 344.85C255.836 344.23 255.845 343.614 255.861 343H296.099C296.072 343.608 296.058 344.225 296.058 344.85C296.058 363.271 307.888 374.425 322.591 374.425C337.294 374.425 349.124 363.271 349.124 344.85C349.124 344.225 349.11 343.608 349.084 343H389.321C389.338 343.614 389.346 344.23 389.346 344.85C389.346 357.021 386.089 368.061 380.278 377.333ZM519.819 377.333H403.822V343H443.706V372.904H460.437C477.168 372.904 488.66 362.933 488.66 344.85C488.66 344.224 488.646 343.607 488.619 343H528.859C528.874 343.613 528.882 344.229 528.882 344.85C528.882 357.472 525.659 368.412 519.819 377.333ZM641.803 377.333H543.445V343H632.677V358.37H582.653V373.918H641.803V377.333Z" fill="white"/>
<path fill-rule="evenodd" clip-rule="evenodd" d="M98.9547 94.004V92.643H133.6V94.004H98.9547ZM24.8015 128.337H133.6V142.667C119.235 152.469 99.4617 157.708 82.0547 157.708C56.7304 157.708 35.9383 146.489 24.8015 128.337ZM82.8997 34C44.5267 34 16.9304 58.6558 16 94.004H56.2368C56.969 76.84 67.9534 66.279 84.9277 66.279C95.4057 66.279 104.025 70.673 111.461 79.292L136.98 56.815C124.981 42.112 106.222 34 82.8997 34ZM150.593 155.004V128.337H243.881V155.004H150.593ZM190.477 94.004H150.593V36.704H190.477V94.004ZM254.898 155.004V128.337H294.782V155.004H254.898ZM294.782 94.004H254.898V36.704H294.782V94.004ZM339.67 155.004V128.337H379.554V155.004H339.67ZM379.554 94.004H339.67V67.631H305.025V36.704H414.199V67.631H379.554V94.004ZM484.086 157.708C458.874 157.708 438.119 146.489 426.995 128.337H530.754L537.152 134.048C525.491 149.258 507.239 157.708 484.086 157.708ZM418.2 94.004L418.196 94.1588C419.05 58.7278 446.655 34 484.086 34C507.239 34 525.491 42.45 537.152 57.66L511.971 80.137C505.042 71.349 496.761 66.279 486.114 66.279C470.124 66.279 459.175 76.9908 458.438 94.004H418.2ZM625.394 36.704H665.278V94.004H548.668V36.704H588.552V78.616H625.394V36.704ZM625.394 128.337H665.278V155.004H625.394V128.337ZM548.668 128.337H588.552V155.004H548.668V128.337ZM128.593 343C118.914 332.369 113.266 318.207 113.266 301.854C113.266 265.519 141.151 240 179.176 240C202.329 240 220.581 248.45 232.242 263.66L207.061 286.137C200.132 277.349 191.851 272.279 181.204 272.279C164.642 272.279 153.488 283.771 153.488 301.854C153.488 319.937 164.642 331.429 181.204 331.429C191.851 331.429 200.132 326.359 207.061 317.571L232.242 340.048C220.581 355.258 202.329 363.708 179.176 363.708C173.56 363.708 168.164 363.151 163.047 362.085C160.24 357.428 158.686 351.598 158.686 344.85C158.686 344.225 158.7 343.609 158.726 343H128.593ZM252.258 343C242.341 332.301 236.55 318.083 236.55 301.854C236.55 266.026 264.773 240 303.305 240C341.837 240 370.06 266.026 370.06 301.854C370.06 318.083 364.269 332.301 354.352 343H334.996C335.023 343.608 335.037 344.225 335.037 344.85C335.037 349.789 334.186 354.206 332.658 358.026C323.926 361.698 314.014 363.708 303.305 363.708C297.352 363.708 291.645 363.087 286.249 361.904C283.541 357.309 281.971 351.562 281.971 344.85C281.971 344.225 281.984 343.608 282.011 343H252.258ZM303.305 331.429C318.008 331.429 329.838 320.275 329.838 301.854C329.838 283.433 318.008 272.279 303.305 272.279C288.602 272.279 276.772 283.433 276.772 301.854C276.772 320.275 288.602 331.429 303.305 331.429ZM384.536 242.704H442.841C482.387 242.704 509.596 265.181 509.596 301.854C509.596 318.923 503.702 332.917 493.413 343H474.531C474.559 343.607 474.573 344.224 474.573 344.85C474.573 348.953 473.981 352.638 472.871 355.884C464.05 359.237 453.93 361.004 442.841 361.004H429.619V343H389.735V361.004H384.536V242.704ZM424.42 329.908H441.151C457.882 329.908 469.374 319.937 469.374 301.854C469.374 283.771 457.882 273.8 441.151 273.8H424.42V329.908ZM563.367 330.922H622.517V361.004H568.566V358.37H618.59V343H529.358V361.004H524.159V242.704H620.32V272.786H563.367V286.644H613.391V315.374H563.367V330.922Z" fill="white"/>
<path fill-rule="evenodd" clip-rule="evenodd" d="M132.328 137V165.552C127.427 167.58 122.695 168.425 117.794 168.425C100.725 168.425 89.5709 156.595 89.5709 138.85C89.5709 138.225 89.584 137.608 89.61 137H49.3732C49.3571 137.613 49.3489 138.23 49.3489 138.85C49.3489 151.093 52.515 162.109 58.1747 171.333H166.973V137H132.328ZM183.967 137V171.333H277.255V167.073H223.851V137H183.967ZM288.271 137V171.333H328.155V137H288.271ZM373.043 137V171.333H412.927V137H373.043ZM451.573 137C451.557 137.613 451.549 138.23 451.549 138.85C451.549 151.093 454.715 162.109 460.368 171.333H564.127L545.344 154.567C538.415 163.355 530.134 168.425 519.487 168.425C502.925 168.425 491.771 156.933 491.771 138.85C491.771 138.225 491.784 137.609 491.811 137H451.573ZM582.041 137V171.333H621.925V154.398H658.767V171.333H698.651V137H582.041Z" fill="#B34FFF" style="mix-blend-mode:multiply"/>
<path fill-rule="evenodd" clip-rule="evenodd" d="M259.218 377.333H155.459C149.806 368.109 146.639 357.093 146.639 344.85C146.639 344.23 146.648 343.613 146.664 343H186.901C186.875 343.609 186.861 344.225 186.861 344.85C186.861 362.933 198.015 374.425 214.577 374.425C225.224 374.425 233.505 369.355 240.434 360.567L259.218 377.333ZM394.365 377.333H278.992C273.181 368.061 269.924 357.021 269.924 344.85C269.924 344.23 269.932 343.614 269.949 343H310.186C310.159 343.608 310.146 344.225 310.146 344.85C310.146 363.271 321.976 374.425 336.679 374.425C351.382 374.425 363.212 363.271 363.212 344.85C363.212 344.225 363.198 343.608 363.171 343H403.408C403.425 343.614 403.434 344.23 403.434 344.85C403.434 357.021 400.177 368.061 394.365 377.333ZM533.907 377.333H417.91V343H457.794V372.904H474.525C491.256 372.904 502.748 362.933 502.748 344.85C502.748 344.224 502.734 343.607 502.706 343H542.946C542.962 343.613 542.97 344.229 542.97 344.85C542.97 357.472 539.747 368.412 533.907 377.333ZM655.891 377.333H557.533V343H646.765V358.37H596.741V373.918H655.891V377.333Z" fill="#B34FFF" style="mix-blend-mode:multiply"/>
<path fill-rule="evenodd" clip-rule="evenodd" d="M113.042 94.004V92.643H147.687V94.004H113.042ZM38.889 128.337H147.687V142.667C133.322 152.469 113.549 157.708 96.1422 157.708C70.8179 157.708 50.0258 146.489 38.889 128.337ZM96.9872 34C58.6142 34 31.0178 58.6558 30.0875 94.004H70.3242C71.0564 76.84 82.0409 66.279 99.0152 66.279C109.493 66.279 118.112 70.673 125.548 79.292L151.067 56.815C139.068 42.112 120.309 34 96.9872 34ZM164.681 155.004V128.337H257.969V155.004H164.681ZM204.565 94.004H164.681V36.704H204.565V94.004ZM268.986 155.004V128.337H308.87V155.004H268.986ZM308.87 94.004H268.986V36.704H308.87V94.004ZM353.758 155.004V128.337H393.642V155.004H353.758ZM393.642 94.004H353.758V67.631H319.113V36.704H428.287V67.631H393.642V94.004ZM498.173 157.708C472.961 157.708 452.207 146.489 441.083 128.337H544.842L551.239 134.048C539.578 149.258 521.326 157.708 498.173 157.708ZM432.288 94.004L432.284 94.1588C433.137 58.7278 460.743 34 498.173 34C521.326 34 539.578 42.45 551.239 57.66L526.058 80.137C519.129 71.349 510.848 66.279 500.201 66.279C484.211 66.279 473.262 76.9908 472.525 94.004H432.288ZM639.481 36.704H679.365V94.004H562.755V36.704H602.639V78.616H639.481V36.704ZM639.481 128.337H679.365V155.004H639.481V128.337ZM562.755 128.337H602.639V155.004H562.755V128.337ZM142.681 343C133.002 332.369 127.354 318.207 127.354 301.854C127.354 265.519 155.239 240 193.264 240C216.417 240 234.669 248.45 246.33 263.66L221.149 286.137C214.22 277.349 205.939 272.279 195.292 272.279C178.73 272.279 167.576 283.771 167.576 301.854C167.576 319.937 178.73 331.429 195.292 331.429C205.939 331.429 214.22 326.359 221.149 317.571L246.33 340.048C234.669 355.258 216.417 363.708 193.264 363.708C187.647 363.708 182.252 363.151 177.135 362.085C174.327 357.428 172.774 351.598 172.774 344.85C172.774 344.225 172.787 343.609 172.814 343H142.681ZM266.346 343C256.429 332.301 250.638 318.083 250.638 301.854C250.638 266.026 278.861 240 317.393 240C355.925 240 384.148 266.026 384.148 301.854C384.148 318.083 378.357 332.301 368.44 343H349.084C349.111 343.608 349.124 344.225 349.124 344.85C349.124 349.789 348.274 354.206 346.745 358.026C338.014 361.698 328.101 363.708 317.393 363.708C311.439 363.708 305.732 363.087 300.337 361.904C297.629 357.309 296.058 351.562 296.058 344.85C296.058 344.225 296.072 343.608 296.099 343H266.346ZM317.393 331.429C332.096 331.429 343.926 320.275 343.926 301.854C343.926 283.433 332.096 272.279 317.393 272.279C302.69 272.279 290.86 283.433 290.86 301.854C290.86 320.275 302.69 331.429 317.393 331.429ZM398.624 242.704H456.929C496.475 242.704 523.684 265.181 523.684 301.854C523.684 318.923 517.79 332.917 507.5 343H488.619C488.646 343.607 488.66 344.224 488.66 344.85C488.66 348.953 488.068 352.638 486.958 355.884C478.137 359.237 468.018 361.004 456.929 361.004H443.706V343H403.822V361.004H398.624V242.704ZM438.508 329.908H455.239C471.97 329.908 483.462 319.937 483.462 301.854C483.462 283.771 471.97 273.8 455.239 273.8H438.508V329.908ZM577.455 330.922H636.605V361.004H582.653V358.37H632.677V343H543.445V361.004H538.247V242.704H634.408V272.786H577.455V286.644H627.479V315.374H577.455V330.922Z" fill="#B34FFF" style="mix-blend-mode:multiply"/>
<path fill-rule="evenodd" clip-rule="evenodd" d="M118.24 137V165.552C113.339 167.58 108.607 168.425 103.706 168.425C86.6374 168.425 75.4834 156.595 75.4834 138.85C75.4834 138.225 75.4965 137.608 75.5224 137H35.2857C35.2695 137.613 35.2614 138.23 35.2614 138.85C35.2614 151.093 38.4275 162.109 44.0872 171.333H152.885V137H118.24ZM169.879 137V171.333H263.167V167.073H209.763V137H169.879ZM274.184 137V171.333H314.068V137H274.184ZM358.956 137V171.333H398.84V137H358.956ZM437.486 137C437.47 137.613 437.462 138.23 437.462 138.85C437.462 151.093 440.628 162.109 446.281 171.333H550.04L531.257 154.567C524.328 163.355 516.047 168.425 505.4 168.425C488.838 168.425 477.684 156.933 477.684 138.85C477.684 138.225 477.697 137.609 477.723 137H437.486ZM567.953 137V171.333H607.837V154.398H644.679V171.333H684.563V137H567.953Z" fill="#4DE6FF" style="mix-blend-mode:multiply"/>
<path fill-rule="evenodd" clip-rule="evenodd" d="M245.13 377.333H141.371C135.718 368.109 132.552 357.093 132.552 344.85C132.552 344.23 132.56 343.613 132.576 343H172.814C172.787 343.609 172.774 344.225 172.774 344.85C172.774 362.933 183.928 374.425 200.49 374.425C211.137 374.425 219.418 369.355 226.347 360.567L245.13 377.333ZM380.278 377.333H264.905C259.093 368.061 255.836 357.021 255.836 344.85C255.836 344.23 255.845 343.614 255.861 343H296.099C296.072 343.608 296.058 344.225 296.058 344.85C296.058 363.271 307.888 374.425 322.591 374.425C337.294 374.425 349.124 363.271 349.124 344.85C349.124 344.225 349.11 343.608 349.084 343H389.321C389.338 343.614 389.346 344.23 389.346 344.85C389.346 357.021 386.089 368.061 380.278 377.333ZM519.819 377.333H403.822V343H443.706V372.904H460.437C477.168 372.904 488.66 362.933 488.66 344.85C488.66 344.224 488.646 343.607 488.619 343H528.859C528.874 343.613 528.882 344.229 528.882 344.85C528.882 357.472 525.659 368.412 519.819 377.333ZM641.803 377.333H543.445V343H632.677V358.37H582.653V373.918H641.803V377.333Z" fill="#4DE6FF" style="mix-blend-mode:multiply"/>
<path fill-rule="evenodd" clip-rule="evenodd" d="M98.9547 94.004V92.643H133.6V94.004H98.9547ZM24.8015 128.337H133.6V142.667C119.235 152.469 99.4617 157.708 82.0547 157.708C56.7304 157.708 35.9383 146.489 24.8015 128.337ZM82.8997 34C44.5267 34 16.9304 58.6558 16 94.004H56.2368C56.969 76.84 67.9534 66.279 84.9277 66.279C95.4057 66.279 104.025 70.673 111.461 79.292L136.98 56.815C124.981 42.112 106.222 34 82.8997 34ZM150.593 155.004V128.337H243.881V155.004H150.593ZM190.477 94.004H150.593V36.704H190.477V94.004ZM254.898 155.004V128.337H294.782V155.004H254.898ZM294.782 94.004H254.898V36.704H294.782V94.004ZM339.67 155.004V128.337H379.554V155.004H339.67ZM379.554 94.004H339.67V67.631H305.025V36.704H414.199V67.631H379.554V94.004ZM484.086 157.708C458.874 157.708 438.119 146.489 426.995 128.337H530.754L537.152 134.048C525.491 149.258 507.239 157.708 484.086 157.708ZM418.2 94.004L418.196 94.1588C419.05 58.7278 446.655 34 484.086 34C507.239 34 525.491 42.45 537.152 57.66L511.971 80.137C505.042 71.349 496.761 66.279 486.114 66.279C470.124 66.279 459.175 76.9908 458.438 94.004H418.2ZM625.394 36.704H665.278V94.004H548.668V36.704H588.552V78.616H625.394V36.704ZM625.394 128.337H665.278V155.004H625.394V128.337ZM548.668 128.337H588.552V155.004H548.668V128.337ZM128.593 343C118.914 332.369 113.266 318.207 113.266 301.854C113.266 265.519 141.151 240 179.176 240C202.329 240 220.581 248.45 232.242 263.66L207.061 286.137C200.132 277.349 191.851 272.279 181.204 272.279C164.642 272.279 153.488 283.771 153.488 301.854C153.488 319.937 164.642 331.429 181.204 331.429C191.851 331.429 200.132 326.359 207.061 317.571L232.242 340.048C220.581 355.258 202.329 363.708 179.176 363.708C173.56 363.708 168.164 363.151 163.047 362.085C160.24 357.428 158.686 351.598 158.686 344.85C158.686 344.225 158.7 343.609 158.726 343H128.593ZM252.258 343C242.341 332.301 236.55 318.083 236.55 301.854C236.55 266.026 264.773 240 303.305 240C341.837 240 370.06 266.026 370.06 301.854C370.06 318.083 364.269 332.301 354.352 343H334.996C335.023 343.608 335.037 344.225 335.037 344.85C335.037 349.789 334.186 354.206 332.658 358.026C323.926 361.698 314.014 363.708 303.305 363.708C297.352 363.708 291.645 363.087 286.249 361.904C283.541 357.309 281.971 351.562 281.971 344.85C281.971 344.225 281.984 343.608 282.011 343H252.258ZM303.305 331.429C318.008 331.429 329.838 320.275 329.838 301.854C329.838 283.433 318.008 272.279 303.305 272.279C288.602 272.279 276.772 283.433 276.772 301.854C276.772 320.275 288.602 331.429 303.305 331.429ZM384.536 242.704H442.841C482.387 242.704 509.596 265.181 509.596 301.854C509.596 318.923 503.702 332.917 493.413 343H474.531C474.559 343.607 474.573 344.224 474.573 344.85C474.573 348.953 473.981 352.638 472.871 355.884C464.05 359.237 453.93 361.004 442.841 361.004H429.619V343H389.735V361.004H384.536V242.704ZM424.42 329.908H441.151C457.882 329.908 469.374 319.937 469.374 301.854C469.374 283.771 457.882 273.8 441.151 273.8H424.42V329.908ZM563.367 330.922H622.517V361.004H568.566V358.37H618.59V343H529.358V361.004H524.159V242.704H620.32V272.786H563.367V286.644H613.391V315.374H563.367V330.922Z" fill="#4DE6FF" style="mix-blend-mode:multiply"/>
<path d="M88.153 131.552V101.639H122.798V151.663C108.433 161.465 88.6599 166.704 71.253 166.704C33.059 166.704 5.17395 141.185 5.17395 104.85C5.17395 68.515 33.059 42.996 72.098 42.996C95.42 42.996 114.179 51.108 126.178 65.811L100.659 88.288C93.223 79.669 84.604 75.275 74.126 75.275C56.5499 75.275 45.396 86.598 45.396 104.85C45.396 122.595 56.5499 134.425 73.619 134.425C78.52 134.425 83.252 133.58 88.153 131.552ZM139.792 164V45.7H179.676V133.073H233.08V164H139.792ZM244.096 164V45.7H283.98V164H244.096ZM328.868 164V76.627H294.223V45.7H403.397V76.627H368.752V164H328.868ZM473.284 166.704C435.259 166.704 407.374 141.185 407.374 104.85C407.374 68.515 435.259 42.996 473.284 42.996C496.437 42.996 514.689 51.446 526.35 66.656L501.169 89.133C494.24 80.345 485.959 75.275 475.312 75.275C458.75 75.275 447.596 86.767 447.596 104.85C447.596 122.933 458.75 134.425 475.312 134.425C485.959 134.425 494.24 129.355 501.169 120.567L526.35 143.044C514.689 158.254 496.437 166.704 473.284 166.704ZM614.592 45.7H654.476V164H614.592V120.398H577.75V164H537.866V45.7H577.75V87.612H614.592V45.7ZM168.374 372.704C130.349 372.704 102.464 347.185 102.464 310.85C102.464 274.515 130.349 248.996 168.374 248.996C191.527 248.996 209.779 257.446 221.44 272.656L196.259 295.133C189.33 286.345 181.049 281.275 170.402 281.275C153.84 281.275 142.686 292.767 142.686 310.85C142.686 328.933 153.84 340.425 170.402 340.425C181.049 340.425 189.33 335.355 196.259 326.567L221.44 349.044C209.779 364.254 191.527 372.704 168.374 372.704ZM292.504 372.704C253.972 372.704 225.749 346.678 225.749 310.85C225.749 275.022 253.972 248.996 292.504 248.996C331.036 248.996 359.259 275.022 359.259 310.85C359.259 346.678 331.036 372.704 292.504 372.704ZM292.504 340.425C307.207 340.425 319.037 329.271 319.037 310.85C319.037 292.429 307.207 281.275 292.504 281.275C277.801 281.275 265.971 292.429 265.971 310.85C265.971 329.271 277.801 340.425 292.504 340.425ZM373.735 370V251.7H432.04C471.586 251.7 498.795 274.177 498.795 310.85C498.795 347.523 471.586 370 432.04 370H373.735ZM413.619 338.904H430.35C447.081 338.904 458.573 328.933 458.573 310.85C458.573 292.767 447.081 282.796 430.35 282.796H413.619V338.904ZM552.566 339.918H611.716V370H513.358V251.7H609.519V281.782H552.566V295.64H602.59V324.37H552.566V339.918Z" fill="white"/>
</svg>
